HIERARCHY
ROOT Hips
{
  OFFSET -331.093 83.8371 -317.828
  CHANNELS 6 Xposition Yposition Zposition Zrotation Xrotation Yrotation
  JOINT LeftUpLeg
  {
    OFFSET 8.64259 1.95398 -2.38835
    CHANNELS 3 Zrotation Xrotation Yrotation
    JOINT LeftLeg
    {
      OFFSET 43.7702 0 0
      CHANNELS 3 Zrotation Xrotation Yrotation
      JOINT LeftFoot
      {
        OFFSET 40.6238 0 0
        CHANNELS 3 Zrotation Xrotation Yrotation
        JOINT LeftToeBase
        {
          OFFSET 12.7242 0 0
          CHANNELS 3 Zrotation Xrotation Yrotation
          End Site
          {
            OFFSET 0 0 0
          }
        }
      }
    }
  }
  JOINT RightUpLeg
  {
    OFFSET -8.2249 1.95398 -2.59336
    CHANNELS 3 Zrotation Xrotation Yrotation
    JOINT RightLeg
    {
      OFFSET 43.5653 0 0
      CHANNELS 3 Zrotation Xrotation Yrotation
      JOINT RightFoot
      {
        OFFSET 40.6238 0 0
        CHANNELS 3 Zrotation Xrotation Yrotation
        JOINT RightToeBase
        {
          OFFSET 12.7242 0 0
          CHANNELS 3 Zrotation Xrotation Yrotation
          End Site
          {
            OFFSET 0 0 0
          }
        }
      }
    }
  }
  JOINT Spine
  {
    OFFSET 0.165834 0.87714 6.61349
    CHANNELS 3 Zrotation Xrotation Yrotation
    JOINT Spine1
    {
      OFFSET 7.38963 1.71661e-005 0
      CHANNELS 3 Zrotation Xrotation Yrotation
      JOINT Spine2
      {
        OFFSET 11.9445 1.14441e-005 0
        CHANNELS 3 Zrotation Xrotation Yrotation
        JOINT Spine3
        {
          OFFSET 14.7254 4.19617e-005 0
          CHANNELS 3 Zrotation Xrotation Yrotation
          JOINT Spine4
          {
            OFFSET 10.9679 0 0
            CHANNELS 3 Zrotation Xrotation Yrotation
            JOINT RightShoulder
            {
              OFFSET 2.46616 -1.6653 3.69651
              CHANNELS 3 Zrotation Xrotation Yrotation
              JOINT RightArm
              {
                OFFSET 13.0012 0 0
                CHANNELS 3 Zrotation Xrotation Yrotation
                JOINT RightForeArm
                {
                  OFFSET 28.7848 1.62311e-005 0
                  CHANNELS 3 Zrotation Xrotation Yrotation
                  JOINT RightHand
                  {
                    OFFSET 26.5688 1.62095e-005 0
                    CHANNELS 3 Zrotation Xrotation Yrotation
                    End Site
                    {
                      OFFSET 0 0 0
                    }
                  }
                }
              }
            }
            JOINT LeftShoulder
            {
              OFFSET 2.38034 -1.29275 -3.7523
              CHANNELS 3 Zrotation Xrotation Yrotation
              JOINT LeftArm
              {
                OFFSET 16.3182 6.07031e-005 0
                CHANNELS 3 Zrotation Xrotation Yrotation
                JOINT LeftForeArm
                {
                  OFFSET 27.0901 0 0
                  CHANNELS 3 Zrotation Xrotation Yrotation
                  JOINT LeftHand
                  {
                    OFFSET 24.5451 1.51738e-005 0
                    CHANNELS 3 Zrotation Xrotation Yrotation
                    End Site
                    {
                      OFFSET 0 0 0
                    }
                  }
                }
              }
            }
            JOINT Neck
            {
              OFFSET 5.0226 -0.0266342 0
              CHANNELS 3 Zrotation Xrotation Yrotation
              JOINT Head
              {
                OFFSET 6.69364 2.86102e-005 0
                CHANNELS 3 Zrotation Xrotation Yrotation
                End Site
                {
                  OFFSET 0 0 0
                }
              }
            }
          }
        }
      }
    }
  }
}
MOTION
Frames:	6
Frame Time:	0.0416667
58.5218 93.2938 1.65019 -76.471 38.7961 -102.38 -173.281 12.9864 88.6325 -41.2362 20.4035 -2.2628 61.4932 1.29223 2.39589 48.8964 28.0237 21.3025 172.613 0.339391 90.0057 -18.8623 -2.12259 -3.919 84.4006 -11.8305 -4.59305 45.5173 -3.25334 -10.9002 0.560139 6.87749 -89.5273 13.1143 1.33947 0.780345 1.44387 1.37249 0.720623 -21.0931 1.04301 1.14683 -1.08043 1.04301 1.14683 92.0309 -39.9895 -99.523 20.8223 -20.7631 -4.21075 -15.0411 3.36263 -89.079 -32.11 -0.571026 -3.11382 -94.0142 -48.7723 72.9097 -24.4962 3.62704 9.59655 8.19308 7.33048 -46.9896 13.6359 1.00411 3.40304 2.20456 -4.22595 3.57626 3.26702 -4.77281 -1.2302 
57.6411 93.4184 2.65916 -76.3306 36.7398 -102.03 -172.948 8.8061 88.6626 -34.0149 19.6495 -3.04971 64.4077 3.98074 3.52348 51.5058 27.6995 16.5421 171.897 -0.570687 89.1209 -16.6938 -4.30451 -3.57698 83.3205 -11.7077 -4.58689 47.6946 -3.82389 -11.9477 0.522805 6.77334 -89.5463 13.3231 1.25653 0.749428 1.65253 1.2883 0.69338 -20.8841 0.973217 1.09242 -0.871446 0.973219 1.09242 92.2215 -39.4723 -99.3207 23.0195 -19.4573 -1.64847 -14.9567 2.22334 -88.4713 -32.1594 -0.468601 -3.48532 -94.4086 -49.2474 72.4612 -22.5026 3.30514 5.89257 7.86061 5.08164 -50.7529 16.6185 1.15388 3.05515 2.01549 -5.02892 3.40993 3.62816 -5.54175 -1.40282 
56.5968 93.3238 3.4459 -76.5115 35.4776 -101.538 -172.321 7.12244 88.7315 -31.2606 20.6113 -3.85175 65.8509 5.99623 5.45675 52.8426 26.8219 13.1512 171.86 -1.8309 88.7359 -15.7879 -6.2051 -4.03639 82.4959 -11.7382 -4.62775 49.1734 -3.67351 -10.8256 0.501197 6.72525 -89.563 13.4195 1.2058 0.721149 1.749 1.23638 0.667369 -20.7875 0.93334 1.05021 -0.774866 0.933329 1.0502 91.7643 -39.1946 -100.189 24.6916 -18.6219 0.560427 -15.5222 2.85523 -87.0384 -31.9706 -0.725379 -2.53971 -95.7676 -50.0767 70.7109 -20.3083 2.13715 4.17244 10.1956 4.80346 -56.6188 15.9102 1.06842 2.82866 2.16429 -5.53584 3.07977 3.225 -5.97116 -1.03225 
55.1508 92.9331 4.19215 -77.3188 33.3914 -100.914 -173.098 6.65099 87.809 -32.0152 20.4573 -3.28293 65.8402 6.05012 5.46802 54.9816 27.982 11.6366 171.998 -1.76685 88.1244 -18.6153 -7.70237 -4.82228 82.484 -11.7046 -4.65899 52.5255 -4.21007 -11.1671 0.352285 6.80136 -89.5755 13.2679 0.903938 0.735939 1.59706 0.935439 0.695449 -20.9378 0.64098 0.973582 -0.925189 0.640971 0.973579 91.8337 -39.32 -100.035 25.647 -18.1613 1.61393 -15.3579 2.02735 -84.7388 -31.4905 -0.716254 -2.56455 -97.5993 -51.0034 68.3494 -18.0238 1.91798 2.08624 11.1703 3.48126 -61.9802 15.1587 0.966572 2.47922 1.73268 -5.98182 2.44764 4.50855 -6.28404 -0.560901 
53.4973 92.6917 4.6571 -76.9563 33.3264 -100.322 -173.325 5.63841 87.7248 -31.3529 21.8774 -3.13435 66.7317 7.7998 7.30153 52.9405 25.473 10.9554 173.411 2.29085 87.7821 -27.7805 -10.094 -5.71211 80.1258 -10.4291 -4.48967 57.4112 -4.79853 -11.0574 0.316398 6.83121 -89.6453 13.2091 0.798959 0.610152 1.5383 0.825006 0.574397 -20.9969 0.578641 0.822059 -0.984217 0.578638 0.822061 91.9158 -38.9714 -99.9818 27.7822 -17.7227 3.04886 -17.8188 -0.134606 -81.3339 -27.794 -1.34711 0.469774 -97.9189 -51.2293 67.9644 -17.5732 2.4757 0.336414 14.6723 3.20952 -68.1376 15.8824 1.23928 3.89287 1.52723 -5.94472 1.73388 5.74036 -6.13535 -0.531004 
51.7401 92.7987 4.74102 -76.2663 35.0061 -99.6866 -174.041 2.5447 87.7147 -27.0229 21.4097 -2.70428 66.4076 7.1642 7.16812 54.9526 25.7242 8.3208 175.942 10.7594 88.2347 -42.9204 -12.2505 -5.85312 74.6292 -7.6394 -3.82532 58.8028 -7.6917 -17.7213 0.230786 6.87358 -89.7624 13.1262 0.572494 0.404434 1.45538 0.589752 0.378834 -21.0799 0.424489 0.557793 -1.06724 0.424484 0.55779 92.4687 -39.5226 -98.8762 28.9647 -19.6243 4.93664 -19.1106 -1.57291 -78.0739 -26.0258 -1.14888 -0.0307084 -96.8906 -50.4265 69.1851 -19.7197 1.76531 0.843387 17.7112 1.45841 -76.0563 16.7715 1.66011 6.00058 2.84724 -4.80896 0.77364 5.3261 -4.81516 0.426575 
